{
  "accessors": [
    {
      "bufferView": 2,
      "componentType": 5126,
      "count": 2136,
      "max": [
        7.4253387451171875,
        1.0231500864028931,
        7.4253420829772949
      ],
      "min": [
        -7.4253392219543457,
        -1.0245652198791504,
        -7.4253377914428711
      ],
      "type": "VEC3"
    },
    {
      "bufferView": 2,
      "byteOffset": 25632,
      "componentType": 5126,
      "count": 2136,
      "max": [
        0.99992096424102783,
        1,
        0.99992096424102783
      ],
      "min": [
        -0.99992096424102783,
        -1,
        -0.99992096424102783
      ],
      "type": "VEC3"
    },
    {
      "bufferView": 1,
      "componentType": 5126,
      "count": 2136,
      "max": [
        0.96372854709625244,
        0.99591678380966187
      ],
      "min": [
        0.15206536650657654,
        0.011989147402346134
      ],
      "type": "VEC2"
    },
    {
      "bufferView": 0,
      "componentType": 5125,
      "count": 6528,
      "max": [
        2135
      ],
      "min": [
        0
      ],
      "type": "SCALAR"
    },
    {
      "bufferView": 2,
      "byteOffset": 51264,
      "componentType": 5126,
      "count": 192,
      "max": [
        7.2623653411865234,
        -0.50413084030151367,
        7.2623701095581055
      ],
      "min": [
        -7.2623682022094727,
        -0.67215633392333984,
        -7.262364387512207
      ],
      "type": "VEC3"
    },
    {
      "bufferView": 2,
      "byteOffset": 53568,
      "componentType": 5126,
      "count": 192,
      "max": [
        0.99518483877182007,
        1,
        0.99518471956253052
      ],
      "min": [
        -0.99518483877182007,
        -1,
        -0.99518483877182007
      ],
      "type": "VEC3"
    },
    {
      "bufferView": 1,
      "byteOffset": 17088,
      "componentType": 5126,
      "count": 192,
      "max": [
        1,
        1
      ],
      "min": [
        0,
        0.01000000536441803
      ],
      "type": "VEC2"
    },
    {
      "bufferView": 0,
      "byteOffset": 26112,
      "componentType": 5125,
      "count": 372,
      "max": [
        191
      ],
      "min": [
        0
      ],
      "type": "SCALAR"
    },
    {
      "bufferView": 2,
      "byteOffset": 55872,
      "componentType": 5126,
      "count": 155,
      "max": [
        1.8399784564971924,
        0.69318646192550659,
        7.5046863555908203
      ],
      "min": [
        -5.6056504249572754,
        -0.69318646192550659,
        4.9910683631896973
      ],
      "type": "VEC3"
    },
    {
      "bufferView": 2,
      "byteOffset": 57732,
      "componentType": 5126,
      "count": 155,
      "max": [
        0.99750971794128418,
        0,
        1
      ],
      "min": [
        -1,
        0,
        -0.78549802303314209
      ],
      "type": "VEC3"
    },
    {
      "bufferView": 1,
      "byteOffset": 18624,
      "componentType": 5126,
      "count": 155,
      "max": [
        0.8716810941696167,
        0.96592110395431519
      ],
      "min": [
        0.13958172500133514,
        0.041984718292951584
      ],
      "type": "VEC2"
    },
    {
      "bufferView": 0,
      "byteOffset": 27600,
      "componentType": 5125,
      "count": 672,
      "max": [
        154
      ],
      "min": [
        0
      ],
      "type": "SCALAR"
    },
    {
      "bufferView": 2,
      "byteOffset": 59592,
      "componentType": 5126,
      "count": 48801,
      "max": [
        0.038437426090240479,
        0.0094991270452737808,
        0.024431800469756126
      ],
      "min": [
        -0.046760417520999908,
        0,
        -0.032684184610843658
      ],
      "type": "VEC3"
    },
    {
      "bufferView": 2,
      "byteOffset": 645204,
      "componentType": 5126,
      "count": 48801,
      "max": [
        1,
        1,
        1
      ],
      "min": [
        -0.99999427795410156,
        -1,
        -0.99996542930603027
      ],
      "type": "VEC3"
    },
    {
      "bufferView": 1,
      "byteOffset": 19864,
      "componentType": 5126,
      "count": 48801,
      "max": [
        0.97005587816238403,
        0.78031724691390991
      ],
      "min": [
        0.020259261131286621,
        0.17516106367111206
      ],
      "type": "VEC2"
    },
    {
      "bufferView": 0,
      "byteOffset": 30288,
      "componentType": 5125,
      "count": 292800,
      "max": [
        48800
      ],
      "min": [
        0
      ],
      "type": "SCALAR"
    }
  ],
  "asset": {
    "extras": {
      "author": "Chaitanya Krishnan (https://sketchfab.com/chaitanyak)",
      "license": "CC-BY-4.0 (http://creativecommons.org/licenses/by/4.0/)",
      "source": "https://sketchfab.com/3d-models/3december2020-day-11-meat-fd51961cc4cb493baaefbdbd4307bcf7",
      "title": "3December2020 - Day 11 - Meat"
    },
    "generator": "Sketchfab-9.85.0",
    "version": "2.0"
  },
  "bufferViews": [
    {
      "buffer": 0,
      "byteLength": 1201488,
      "byteOffset": 0,
      "name": "floatBufferViews",
      "target": 34963
    },
    {
      "buffer": 0,
      "byteLength": 410272,
      "byteOffset": 1201488,
      "byteStride": 8,
      "name": "floatBufferViews",
      "target": 34962
    },
    {
      "buffer": 0,
      "byteLength": 1230816,
      "byteOffset": 1611760,
      "byteStride": 12,
      "name": "floatBufferViews",
      "target": 34962
    }
  ],
  "buffers": [
    {
      "byteLength": 2842576,
      "uri": "scene.bin"
    }
  ],
  "images": [
    {
      "uri": "textures/dish.barcode_baseColor.png"
    },
    {
      "uri": "textures/meat.001_baseColor.jpeg"
    }
  ],
  "materials": [
    {
      "alphaMode": "BLEND",
      "doubleSided": true,
      "emissiveFactor": [
        0,
        0,
        0
      ],
      "name": "dish",
      "pbrMetallicRoughness": {
        "baseColorFactor": [
          1,
          1,
          1,
          0
        ],
        "metallicFactor": 0,
        "roughnessFactor": 0.5
      }
    },
    {
      "alphaMode": "BLEND",
      "doubleSided": true,
      "name": "medium",
      "pbrMetallicRoughness": {
        "baseColorFactor": [
          1,
          0.4033018605,
          0,
          0
        ],
        "metallicFactor": 0,
        "roughnessFactor": 0
      }
    },
    {
      "doubleSided": true,
      "emissiveFactor": [
        0,
        0,
        0
      ],
      "name": "dish.barcode",
      "pbrMetallicRoughness": {
        "baseColorFactor": [
          1,
          1,
          1,
          1
        ],
        "baseColorTexture": {
          "index": 0,
          "texCoord": 0
        },
        "metallicFactor": 0,
        "roughnessFactor": 0.5
      }
    },
    {
      "doubleSided": true,
      "emissiveFactor": [
        0,
        0,
        0
      ],
      "name": "meat.001",
      "pbrMetallicRoughness": {
        "baseColorFactor": [
          1,
          1,
          1,
          1
        ],
        "baseColorTexture": {
          "index": 1,
          "texCoord": 0
        },
        "metallicFactor": 0,
        "roughnessFactor": 0.18203735909999999
      }
    }
  ],
  "meshes": [
    {
      "primitives": [
        {
          "attributes": {
            "NORMAL": 1,
            "POSITION": 0,
            "TEXCOORD_0": 2
          },
          "indices": 3,
          "material": 0,
          "mode": 4
        }
      ]
    },
    {
      "primitives": [
        {
          "attributes": {
            "NORMAL": 5,
            "POSITION": 4,
            "TEXCOORD_0": 6
          },
          "indices": 7,
          "material": 1,
          "mode": 4
        }
      ]
    },
    {
      "primitives": [
        {
          "attributes": {
            "NORMAL": 9,
            "POSITION": 8,
            "TEXCOORD_0": 10
          },
          "indices": 11,
          "material": 2,
          "mode": 4
        }
      ]
    },
    {
      "primitives": [
        {
          "attributes": {
            "NORMAL": 13,
            "POSITION": 12,
            "TEXCOORD_0": 14
          },
          "indices": 15,
          "material": 3,
          "mode": 4
        }
      ]
    }
  ],
  "nodes": [
    {
      "children": [
        1
      ],
      "name": "RootNode (gltf orientation matrix)",
      "rotation": [
        -0.70710678118654746,
        -0,
        -0,
        0.70710678118654757
      ]
    },
    {
      "children": [
        2
      ],
      "name": "RootNode (model correction matrix)"
    },
    {
      "children": [
        3
      ],
      "name": "root"
    },
    {
      "children": [
        4,
        6,
        8,
        10
      ],
      "matrix": [
        1,
        0,
        0,
        0,
        0,
        2.2204460492503131e-16,
        1,
        0,
        0,
        -1,
        2.2204460492503131e-16,
        0,
        0,
        0,
        0,
        1
      ],
      "name": "GLTF_SceneRootNode"
    },
    {
      "children": [
        5
      ],
      "name": "Cylinder_2"
    },
    {
      "mesh": 0,
      "name": ""
    },
    {
      "children": [
        7
      ],
      "name": "Cylinder.001_3"
    },
    {
      "mesh": 1,
      "name": ""
    },
    {
      "children": [
        9
      ],
      "matrix": [
        0.99143898487091064,
        0,
        0,
        0,
        0,
        0.80584311485290527,
        0,
        0,
        0,
        0,
        0.9974372386932373,
        0,
        0,
        0.11404798924922943,
        0,
        1
      ],
      "name": "barcode_4"
    },
    {
      "mesh": 2,
      "name": ""
    },
    {
      "children": [
        11
      ],
      "matrix": [
        140.63792419433594,
        0,
        0,
        0,
        0,
        140.63792419433594,
        0,
        0,
        0,
        0,
        140.63792419433594,
        0,
        0.44317451119422913,
        -0.66485989093780518,
        0.53323483467102051,
        1
      ],
      "name": "path847_5"
    },
    {
      "mesh": 3,
      "name": ""
    }
  ],
  "samplers": [
    {
      "magFilter": 9729,
      "minFilter": 9987,
      "wrapS": 10497,
      "wrapT": 10497
    }
  ],
  "scene": 0,
  "scenes": [
    {
      "name": "OSG_Scene",
      "nodes": [
        0
      ]
    }
  ],
  "textures": [
    {
      "sampler": 0,
      "source": 0
    },
    {
      "sampler": 0,
      "source": 1
    }
  ]
}

