{
  "accessors": [
    {
      "bufferView": 2,
      "componentType": 5126,
      "count": 65532,
      "max": [
        217.02949523925781,
        118.00900268554688,
        39.188098907470703
      ],
      "min": [
        -415.41339111328125,
        -116.80069732666016,
        -38.650699615478516
      ],
      "type": "VEC3"
    },
    {
      "bufferView": 2,
      "byteOffset": 786384,
      "componentType": 5126,
      "count": 65532,
      "max": [
        0.99980109930038452,
        0.99998867511749268,
        0.99999833106994629
      ],
      "min": [
        -0.99979954957962036,
        -0.99997150897979736,
        -0.99998199939727783
      ],
      "type": "VEC3"
    },
    {
      "bufferView": 3,
      "componentType": 5126,
      "count": 65532,
      "max": [
        0.99902844429016113,
        0.99991875886917114,
        0.99999666213989258,
        1
      ],
      "min": [
        -0.99929094314575195,
        -0.99995779991149902,
        -0.99999970197677612,
        -1
      ],
      "type": "VEC4"
    },
    {
      "bufferView": 1,
      "componentType": 5126,
      "count": 65532,
      "max": [
        1.3854999542236328,
        1.4665000438690186
      ],
      "min": [
        -0.38179999589920044,
        -0.45680001378059387
      ],
      "type": "VEC2"
    },
    {
      "bufferView": 0,
      "componentType": 5125,
      "count": 354639,
      "max": [
        65531
      ],
      "min": [
        0
      ],
      "type": "SCALAR"
    },
    {
      "bufferView": 2,
      "byteOffset": 1572768,
      "componentType": 5126,
      "count": 20413,
      "max": [
        213.79640197753906,
        115.59120178222656,
        37.970600128173828
      ],
      "min": [
        -411.87570190429688,
        -114.69239807128906,
        -34.753200531005859
      ],
      "type": "VEC3"
    },
    {
      "bufferView": 2,
      "byteOffset": 1817724,
      "componentType": 5126,
      "count": 20413,
      "max": [
        0.99980109930038452,
        0.99998867511749268,
        0.99999737739562988
      ],
      "min": [
        -0.99988484382629395,
        -0.99997150897979736,
        -0.99992287158966064
      ],
      "type": "VEC3"
    },
    {
      "bufferView": 3,
      "byteOffset": 1048512,
      "componentType": 5126,
      "count": 20413,
      "max": [
        0.9971611499786377,
        0.99991875886917114,
        0.99997013807296753,
        1
      ],
      "min": [
        -0.99836081266403198,
        -0.99987947940826416,
        -0.99995619058609009,
        -1
      ],
      "type": "VEC4"
    },
    {
      "bufferView": 1,
      "byteOffset": 524256,
      "componentType": 5126,
      "count": 20413,
      "max": [
        1.1967999935150146,
        1.4321999549865723
      ],
      "min": [
        -0.19539999961853027,
        -0.39649999141693115
      ],
      "type": "VEC2"
    },
    {
      "bufferView": 0,
      "byteOffset": 1418556,
      "componentType": 5125,
      "count": 87729,
      "max": [
        20412
      ],
      "min": [
        0
      ],
      "type": "SCALAR"
    }
  ],
  "asset": {
    "extras": {
      "author": "romullus (https://sketchfab.com/romullus)",
      "license": "CC-BY-SA-4.0 (http://creativecommons.org/licenses/by-sa/4.0/)",
      "source": "https://sketchfab.com/3d-models/infinity-loop-perforated-95ed22424c594365967652f0404370f2",
      "title": "Infinity Loop Perforated"
    },
    "generator": "Sketchfab-6.17.1",
    "version": "2.0"
  },
  "bufferViews": [
    {
      "buffer": 0,
      "byteLength": 1769472,
      "byteOffset": 0,
      "name": "floatBufferViews",
      "target": 34963
    },
    {
      "buffer": 0,
      "byteLength": 687560,
      "byteOffset": 1769472,
      "byteStride": 8,
      "name": "floatBufferViews",
      "target": 34962
    },
    {
      "buffer": 0,
      "byteLength": 2062680,
      "byteOffset": 2457032,
      "byteStride": 12,
      "name": "floatBufferViews",
      "target": 34962
    },
    {
      "buffer": 0,
      "byteLength": 1375120,
      "byteOffset": 4519712,
      "byteStride": 16,
      "name": "floatBufferViews",
      "target": 34962
    }
  ],
  "buffers": [
    {
      "byteLength": 5894832,
      "uri": "scene.bin"
    }
  ],
  "materials": [
    {
      "doubleSided": true,
      "name": "material_0",
      "pbrMetallicRoughness": {
        "baseColorFactor": [
          1,
          1,
          1,
          1
        ],
        "metallicFactor": 0,
        "roughnessFactor": 0.59999999999999998
      }
    }
  ],
  "meshes": [
    {
      "primitives": [
        {
          "attributes": {
            "NORMAL": 1,
            "POSITION": 0,
            "TANGENT": 2,
            "TEXCOORD_0": 3
          },
          "indices": 4,
          "material": 0,
          "mode": 4
        }
      ]
    },
    {
      "primitives": [
        {
          "attributes": {
            "NORMAL": 6,
            "POSITION": 5,
            "TANGENT": 7,
            "TEXCOORD_0": 8
          },
          "indices": 9,
          "material": 0,
          "mode": 4
        }
      ]
    }
  ],
  "nodes": [
    {
      "children": [
        1
      ],
      "name": "RootNode (gltf orientation matrix)",
      "rotation": [
        -0.70710678118654746,
        -0,
        -0,
        0.70710678118654757
      ]
    },
    {
      "children": [
        2
      ],
      "matrix": [
        1,
        0,
        0,
        0,
        0,
        -2.2204460492503131e-16,
        1,
        0,
        0,
        -1,
        -2.2204460492503131e-16,
        0,
        0,
        0.87244987487792969,
        -0.33518409729003906,
        1
      ],
      "name": "RootNode (model correction matrix)"
    },
    {
      "children": [
        3,
        4
      ],
      "name": "Infinity_loop_perforated.obj.cleaner.materialmerger.gles"
    },
    {
      "mesh": 0,
      "name": ""
    },
    {
      "mesh": 1,
      "name": ""
    }
  ],
  "scene": 0,
  "scenes": [
    {
      "name": "OSG_Scene",
      "nodes": [
        0
      ]
    }
  ]
}

